# xmcd
#
# Track frame offsets: 
#        150
#        18529
#        30946
#        48251
#        78108
#        93729
#        106983
#        132881
#        153254
#        164491
#        175525
#        184740
#        196917
#        209292
#        222069
#        237353
#        250430
#        267572
#        282232
#        296255
#
# Disc length: 4156 seconds
#
# Revision: 0
# Processed by: cddbd v1.5.1PL2 Copyright (c) Steve Scherf et al.
# Submitted via: ExactAudioCopy v0.95a5
#
DISCID=12103a14
DTITLE=Various Artist - Classic Soul V1
DYEAR=1900
DGENRE=Soul
TTITLE0=Ball Of Confusion/The Temptations
TTITLE1=Dorsey, Lee/Working In A Coalmine
TTITLE2=Womack, Bobby/Across 110th Street
TTITLE3=Tex, Joe/Ain't Going To Bump No More
TTITLE4=Wells, Mary/My Guy
TTITLE5=Turner, Ike and Tina/Nutbush City Limits
TTITLE6=Funkadelic/One Nation Under A Groove
TTITLE7=Gaye, Marvin/Sexual Healing
TTITLE8=Dorsey, Lee/Holy Cow
TTITLE9=Doe, Ernie K/Mother In Law
TTITLE10=Thomas, Irma/It's Raining
TTITLE11=Scott, Peggy - Benson, Jo/Lovers Holiday
TTITLE12=Butler, Jerry - The Impressions/For Your Precious Love
TTITLE13=Sledge, Percy/When A Man Loves A Woman
TTITLE14=Carter, Clarence/Patches
TTITLE15=The Ohio Players/A Little Soul Party
TTITLE16=Mayfield, Curtis - Clifford, Linda/Love's Sweet Sensation
TTITLE17=Sly And The Family Stone/Remember Who You are
TTITLE18=Neville, Aaron/Tell It Like It Is
TTITLE19=Floyd, Eddie/Knock On Wood
EXTD=
EXTT0=
EXTT1=
EXTT2=
EXTT3=
EXTT4=
EXTT5=
EXTT6=
EXTT7=
EXTT8=
EXTT9=
EXTT10=
EXTT11=
EXTT12=
EXTT13=
EXTT14=
EXTT15=
EXTT16=
EXTT17=
EXTT18=
EXTT19=
PLAYORDER=
